<?xml version="1.0" standalone="no"?>
<!DOCTYPE svg PUBLIC "-//W3C//DTD SVG 20010904//EN"
 "http://www.w3.org/TR/2001/REC-SVG-20010904/DTD/svg10.dtd">
<svg version="1.0" xmlns="http://www.w3.org/2000/svg"
 width="362.000000pt" height="345.000000pt" viewBox="0 0 362.000000 345.000000"
 preserveAspectRatio="xMidYMid meet">

<g transform="translate(0.000000,345.000000) scale(0.100000,-0.100000)"
fill="#000000" stroke="none">
<path d="M1695 2620 c-370 -57 -668 -325 -765 -685 -13 -48 -23 -126 -27 -195
-21 -444 282 -841 717 -941 190 -44 411 -21 594 60 l68 31 30 -25 c77 -65 124
-47 263 101 148 158 155 168 155 226 0 39 -6 54 -30 82 l-31 35 29 83 c78 219
67 481 -27 691 -85 188 -247 355 -440 452 -145 72 -378 109 -536 85z m301
-220 c173 -43 333 -155 427 -298 87 -132 121 -244 121 -402 -1 -328 -216 -609
-534 -696 -101 -28 -283 -25 -380 5 -184 57 -317 158 -415 315 -72 115 -96
198 -102 346 -6 145 8 220 61 333 145 312 492 480 822 397z"/>
<path d="M1684 2010 c-86 -12 -192 -51 -276 -100 -78 -47 -218 -174 -218 -198
0 -25 170 -184 240 -225 111 -64 205 -89 355 -94 115 -4 141 -1 227 21 153 39
329 138 426 238 l32 34 -72 71 c-200 194 -466 288 -714 253z m-82 -157 c-61
-89 -56 -209 14 -300 l24 -32 -41 14 c-73 26 -162 79 -213 128 l-51 47 45 40
c40 37 207 130 232 130 5 0 1 -12 -10 -27z m518 -33 c65 -33 180 -116 180
-130 0 -25 -155 -115 -259 -151 -68 -24 -69 -24 -43 4 61 64 80 191 42 275
l-20 43 23 -7 c12 -3 47 -19 77 -34z m-213 -89 c20 -80 -81 -144 -153 -96
l-28 18 39 14 c50 17 92 57 101 96 6 29 7 30 21 11 7 -10 17 -30 20 -43z"/>
<path d="M2848 982 c-15 -10 -67 -61 -117 -114 -168 -181 -171 -165 74 -512
174 -247 191 -267 238 -291 61 -30 116 -32 173 -6 44 20 342 330 371 385 19
37 12 109 -14 145 -11 14 -152 113 -313 219 -274 180 -295 192 -339 192 -27 0
-57 -7 -73 -18z"/>
</g>
</svg>
